<svg id="Flat" height="512" viewBox="0 0 512 512" width="512" xmlns="http://www.w3.org/2000/svg"><path d="m320 456h176v40h-176z" fill="#eb352f"/><rect fill="#57c1ff" height="464" rx="16" width="240" x="160" y="24"/><path d="m160 400v8a16 16 0 0 0 16 16h208a16 16 0 0 0 16-16v-304a16 16 0 0 0 -16-16h-208a16 16 0 0 0 -16 16z" fill="#65dcff"/><circle cx="336" cy="56" fill="#808080" r="8"/><circle cx="368" cy="56" fill="#808080" r="8"/><path d="m248 448h64v16h-64z" fill="#2b7cd4"/><path d="m248 48h64v16h-64z" fill="#2b7cd4"/><path d="m456 214.63v241.37h-56v-48l-10.75-10.75a63.99478 63.99478 0 0 1 0-90.5l10.75-10.75-46-46a25.45584 25.45584 0 0 1 36-36l10 10v-64h1.37a54.62742 54.62742 0 0 1 54.63 54.63z" fill="#ffc7cc"/><path d="m427.31 228.69-11.31 11.31-16-16v-22.63z" fill="#fe99a0"/><g fill="#3ea7ff"><path d="m24 120h264v272h-264z"/><path d="m288 152h56v16h-56z"/><path d="m360 152h16v16h-16z"/><path d="m288 184h48v16h-48z"/><path d="m288 216h32v16h-32z"/><path d="m288 248h40v16h-40z"/><path d="m288 280h64v16h-64z"/><path d="m288 312h48v16h-48z"/><path d="m288 344h32v16h-32z"/><path d="m336 344h16v16h-16z"/></g><path d="m55.919 151.919h48.081v48.081h-48.081z" fill="#2b7cd4"/><path d="m135.919 151.919h48.081v48.081h-48.081z" fill="#2b7cd4"/><path d="m216 151.919h48.081v48.081h-48.081z" fill="#2b7cd4"/><path d="m216 231.919h48.081v48.081h-48.081z" fill="#2b7cd4"/><path d="m135.919 231.919h48.081v48.081h-48.081z" fill="#2b7cd4"/><path d="m56 231.919h48.081v48.081h-48.081z" fill="#2b7cd4"/><path d="m56 311.919h48.081v48.081h-48.081z" fill="#2b7cd4"/><path d="m136 311.919h48.081v48.081h-48.081z" fill="#2b7cd4"/><path d="m215.919 311.919h48.081v48.081h-48.081z" fill="#2b7cd4"/></svg>