<?xml version="1.0" encoding="UTF-8" ?>
<!DOCTYPE svg PUBLIC "-//W3C//DTD SVG 1.1//EN" "http://www.w3.org/Graphics/SVG/1.1/DTD/svg11.dtd">
<svg width="204pt" height="106pt" viewBox="0 0 204 106" version="1.1" xmlns="http://www.w3.org/2000/svg">
<g id="#99c7dcff">
<path fill="#99c7dc" opacity="1.00" d=" M 105.93 15.24 C 106.96 13.70 108.08 12.23 109.21 10.78 C 109.26 11.53 109.35 13.04 109.40 13.79 L 110.35 13.28 C 110.78 14.39 111.22 15.50 111.66 16.61 L 112.48 16.69 C 112.48 17.02 112.50 17.69 112.51 18.02 C 112.56 19.67 112.48 21.36 113.04 22.94 C 115.28 29.81 118.20 36.45 120.03 43.45 C 119.02 43.44 118.01 43.42 117.00 43.41 C 117.79 47.96 119.58 52.25 120.47 56.77 C 119.21 55.84 117.93 54.93 116.65 54.04 C 116.24 54.67 115.44 55.92 115.03 56.55 C 114.02 55.61 113.01 54.68 112.04 53.71 C 111.82 53.47 111.38 52.98 111.17 52.74 C 110.05 59.79 109.48 66.92 108.50 73.99 C 105.86 69.23 104.02 64.11 101.74 59.18 C 101.47 58.55 101.21 57.91 100.96 57.27 C 101.42 57.39 102.35 57.63 102.82 57.76 C 104.05 48.22 106.16 38.79 106.80 29.19 C 105.89 28.12 104.93 27.09 104.19 25.89 C 104.71 22.33 105.93 18.88 105.93 15.24 Z" />
</g>
<g id="#afe4f6ff">
<path fill="#afe4f6" opacity="1.00" d=" M 105.16 16.40 L 105.93 15.24 C 105.93 18.88 104.71 22.33 104.19 25.89 C 104.93 27.09 105.89 28.12 106.80 29.19 C 106.16 38.79 104.05 48.22 102.82 57.76 C 102.35 57.63 101.42 57.39 100.96 57.27 C 100.45 56.00 99.97 54.71 99.51 53.43 C 97.63 45.45 97.14 37.21 95.12 29.25 C 97.16 28.65 98.02 26.62 99.15 25.03 C 101.07 22.09 103.31 19.38 105.16 16.40 Z" />
<path fill="#afe4f6" opacity="1.00" d=" M 78.78 48.87 C 82.25 44.30 85.25 39.41 88.77 34.89 C 87.70 42.92 86.68 51.54 81.33 58.03 C 78.10 61.62 74.61 64.97 71.17 68.35 C 71.33 66.74 71.52 65.14 71.71 63.54 C 74.70 58.94 75.36 53.22 78.78 48.87 Z" />
</g>
<g id="#88b3c1ff">
<path fill="#88b3c1" opacity="1.00" d=" M 112.51 18.02 C 113.30 19.10 114.13 20.16 114.94 21.23 C 116.22 23.51 117.48 25.81 118.82 28.06 C 121.51 32.56 124.49 36.89 126.85 41.57 L 127.14 41.82 C 128.07 43.49 129.18 45.05 130.42 46.50 C 129.62 47.73 128.82 48.95 128.01 50.17 C 126.74 48.67 125.46 47.17 124.15 45.70 C 124.69 50.84 125.59 55.94 126.01 61.10 C 124.45 59.92 122.92 58.72 121.39 57.50 C 121.08 57.25 120.77 57.01 120.47 56.77 C 119.58 52.25 117.79 47.96 117.00 43.41 C 118.01 43.42 119.02 43.44 120.03 43.45 C 118.20 36.45 115.28 29.81 113.04 22.94 C 112.48 21.36 112.56 19.67 112.51 18.02 Z" />
</g>
<g id="#99c8dcff">
<path fill="#99c8dc" opacity="1.00" d=" M 80.77 38.81 C 84.75 35.59 87.48 31.18 91.12 27.60 C 92.44 28.17 93.77 28.72 95.12 29.25 C 97.14 37.21 97.63 45.45 99.51 53.43 C 96.00 56.71 92.96 60.44 89.78 64.03 C 88.67 61.73 87.59 59.43 86.53 57.11 C 84.80 57.43 83.06 57.74 81.33 58.03 C 86.68 51.54 87.70 42.92 88.77 34.89 C 85.25 39.41 82.25 44.30 78.78 48.87 C 75.36 53.22 74.70 58.94 71.71 63.54 C 71.98 59.49 72.43 55.46 72.94 51.43 C 72.48 51.57 71.57 51.87 71.11 52.01 C 74.29 49.44 77.17 46.30 78.15 42.21 C 79.00 41.07 79.74 39.82 80.77 38.81 Z" />
</g>
<g id="#b3e0f2ff">
<path fill="#b3e0f2" opacity="1.00" d=" M 71.69 48.32 C 73.91 46.35 75.99 44.25 78.15 42.21 C 77.17 46.30 74.29 49.44 71.11 52.01 C 69.83 52.56 68.56 53.12 67.28 53.68 C 68.79 51.93 70.34 50.20 71.69 48.32 Z" />
</g>
<g id="#4b616bff">
<path fill="#4b616b" opacity="1.00" d=" M 124.15 45.70 C 125.46 47.17 126.74 48.67 128.01 50.17 C 128.82 48.95 129.62 47.73 130.42 46.50 C 132.11 48.80 133.54 51.27 134.97 53.73 L 134.91 53.76 C 137.22 59.43 139.30 65.19 141.75 70.80 C 140.22 71.18 138.70 71.56 137.18 71.95 C 142.00 83.24 146.75 94.57 151.24 106.00 L 133.29 106.00 C 130.84 101.08 128.64 96.04 126.33 91.07 C 127.59 90.95 128.86 90.84 130.13 90.73 C 128.50 87.05 126.98 83.33 125.72 79.51 C 126.83 79.54 127.96 79.58 129.08 79.61 C 127.06 75.64 124.86 71.76 123.07 67.67 C 123.94 67.26 124.81 66.84 125.68 66.43 C 123.80 63.69 121.71 60.91 121.39 57.50 C 122.92 58.72 124.45 59.92 126.01 61.10 C 125.59 55.94 124.69 50.84 124.15 45.70 Z" />
<path fill="#4b616b" opacity="1.00" d=" M 144.17 51.48 C 151.05 60.46 157.74 69.60 164.51 78.67 C 162.70 78.22 160.90 77.77 159.10 77.30 C 160.47 82.06 162.16 86.73 163.38 91.54 C 162.22 91.47 161.06 91.40 159.90 91.33 C 161.29 96.24 162.69 101.15 164.28 106.00 L 158.28 106.00 C 154.39 97.82 150.46 89.65 146.32 81.59 C 145.03 79.26 144.78 76.58 144.69 73.96 C 144.60 69.97 143.20 66.20 142.12 62.41 C 142.78 62.18 144.12 61.72 144.78 61.49 C 144.43 58.17 144.32 54.82 144.17 51.48 Z" />
<path fill="#4b616b" opacity="1.00" d=" M 111.17 52.74 C 111.38 52.98 111.82 53.47 112.04 53.71 C 116.68 71.26 122.45 88.51 127.35 106.00 L 105.90 106.00 C 103.63 98.06 102.33 89.88 100.80 81.77 C 103.16 83.56 105.52 85.36 107.91 87.11 C 105.96 81.32 104.23 75.47 102.54 69.60 C 101.62 66.23 100.04 62.59 101.74 59.18 C 104.02 64.11 105.86 69.23 108.50 73.99 C 109.48 66.92 110.05 59.79 111.17 52.74 Z" />
<path fill="#4b616b" opacity="1.00" d=" M 38.95 57.47 C 44.45 59.62 49.91 61.86 55.28 64.31 C 58.03 69.98 60.68 75.69 63.04 81.53 C 62.04 81.46 61.04 81.39 60.04 81.32 C 64.79 89.56 69.75 97.68 74.36 106.00 L 60.08 106.00 C 57.40 102.52 55.12 98.75 52.91 94.96 C 53.50 93.61 54.09 92.26 54.68 90.91 C 51.01 84.72 47.62 78.39 44.11 72.12 C 45.36 71.61 46.60 71.08 47.85 70.57 C 45.14 66.03 42.02 61.77 38.95 57.47 Z" />
<path fill="#4b616b" opacity="1.00" d=" M 172.89 77.72 C 173.87 77.42 174.85 77.11 175.82 76.81 C 182.73 86.51 189.48 96.33 196.43 106.00 L 173.85 106.00 C 172.22 98.85 170.72 91.67 169.24 84.49 C 170.68 84.20 172.14 83.96 173.57 83.56 C 174.47 81.71 174.77 79.65 175.23 77.67 C 174.65 77.68 173.48 77.71 172.89 77.72 Z" />
</g>
<g id="#607c8cff">
<path fill="#607c8c" opacity="1.00" d=" M 70.11 48.39 C 70.51 48.37 71.30 48.34 71.69 48.32 C 70.34 50.20 68.79 51.93 67.28 53.68 C 68.56 53.12 69.83 52.56 71.11 52.01 C 71.57 51.87 72.48 51.57 72.94 51.43 C 72.43 55.46 71.98 59.49 71.71 63.54 C 71.52 65.14 71.33 66.74 71.17 68.35 C 74.61 64.97 78.10 61.62 81.33 58.03 C 83.06 57.74 84.80 57.43 86.53 57.11 C 87.59 59.43 88.67 61.73 89.78 64.03 C 92.96 60.44 96.00 56.71 99.51 53.43 C 99.97 54.71 100.45 56.00 100.96 57.27 C 101.21 57.91 101.47 58.55 101.74 59.18 C 100.04 62.59 101.62 66.23 102.54 69.60 C 104.23 75.47 105.96 81.32 107.91 87.11 C 105.52 85.36 103.16 83.56 100.80 81.77 C 102.33 89.88 103.63 98.06 105.90 106.00 L 74.36 106.00 C 69.75 97.68 64.79 89.56 60.04 81.32 C 61.04 81.39 62.04 81.46 63.04 81.53 C 60.68 75.69 58.03 69.98 55.28 64.31 C 60.41 59.18 65.55 54.02 70.11 48.39 Z" />
<path fill="#607c8c" opacity="1.00" d=" M 35.00 63.54 C 36.33 61.52 37.63 59.49 38.95 57.47 C 42.02 61.77 45.14 66.03 47.85 70.57 C 46.60 71.08 45.36 71.61 44.11 72.12 C 47.62 78.39 51.01 84.72 54.68 90.91 C 54.09 92.26 53.50 93.61 52.91 94.96 C 55.12 98.75 57.40 102.52 60.08 106.00 L 22.61 106.00 C 24.56 100.00 27.27 94.29 29.51 88.40 C 31.25 83.79 34.08 79.64 35.54 74.92 C 34.89 73.87 34.11 72.92 33.38 71.93 C 34.37 69.24 34.95 66.41 35.00 63.54 Z" />
</g>
<g id="#617c8aff">
<path fill="#617c8a" opacity="1.00" d=" M 134.97 53.73 C 137.68 52.42 140.47 51.29 143.26 50.17 C 143.49 50.50 143.94 51.15 144.17 51.48 C 144.32 54.82 144.43 58.17 144.78 61.49 C 144.12 61.72 142.78 62.18 142.12 62.41 C 143.20 66.20 144.60 69.97 144.69 73.96 C 144.78 76.58 145.03 79.26 146.32 81.59 C 150.46 89.65 154.39 97.82 158.28 106.00 L 151.24 106.00 C 146.75 94.57 142.00 83.24 137.18 71.95 C 138.70 71.56 140.22 71.18 141.75 70.80 C 139.30 65.19 137.22 59.43 134.91 53.76 L 134.97 53.73 Z" />
</g>
<g id="#617c8bff">
<path fill="#617c8b" opacity="1.00" d=" M 112.04 53.71 C 113.01 54.68 114.02 55.61 115.03 56.55 C 115.44 55.92 116.24 54.67 116.65 54.04 C 117.93 54.93 119.21 55.84 120.47 56.77 C 120.77 57.01 121.08 57.25 121.39 57.50 C 121.71 60.91 123.80 63.69 125.68 66.43 C 124.81 66.84 123.94 67.26 123.07 67.67 C 124.86 71.76 127.06 75.64 129.08 79.61 C 127.96 79.58 126.83 79.54 125.72 79.51 C 126.98 83.33 128.50 87.05 130.13 90.73 C 128.86 90.84 127.59 90.95 126.33 91.07 C 128.64 96.04 130.84 101.08 133.29 106.00 L 127.35 106.00 C 122.45 88.51 116.68 71.26 112.04 53.71 Z" />
<path fill="#617c8b" opacity="1.00" d=" M 159.10 77.30 C 160.90 77.77 162.70 78.22 164.51 78.67 C 164.75 79.00 165.24 79.65 165.48 79.98 C 167.94 79.20 170.40 78.41 172.89 77.72 C 173.48 77.71 174.65 77.68 175.23 77.67 C 174.77 79.65 174.47 81.71 173.57 83.56 C 172.14 83.96 170.68 84.20 169.24 84.49 C 170.72 91.67 172.22 98.85 173.85 106.00 L 164.28 106.00 C 162.69 101.15 161.29 96.24 159.90 91.33 C 161.06 91.40 162.22 91.47 163.38 91.54 C 162.16 86.73 160.47 82.06 159.10 77.30 Z" />
</g>
<g id="#6c8b9bff">
<path fill="#6c8b9b" opacity="1.00" d=" M 5.98 106.00 C 15.78 91.94 25.23 77.63 35.00 63.54 C 34.95 66.41 34.37 69.24 33.38 71.93 C 34.11 72.92 34.89 73.87 35.54 74.92 C 34.08 79.64 31.25 83.79 29.51 88.40 C 27.27 94.29 24.56 100.00 22.61 106.00 L 5.98 106.00 Z" />
</g>
</svg>
