<?xml version="1.0" encoding="utf-8"?>
<!-- Generator: Adobe Illustrator 24.0.1, SVG Export Plug-In . SVG Version: 6.00 Build 0)  -->
<svg version="1.1" id="Layer_1" xmlns="http://www.w3.org/2000/svg" xmlns:xlink="http://www.w3.org/1999/xlink" x="0px" y="0px"
	 viewBox="0 0 512 512" style="enable-background:new 0 0 512 512;" xml:space="preserve">
<style type="text/css">
	.st0{opacity:0.49;fill:#4D6A5F;enable-background:new    ;}
	.st1{fill:#F2F7FB;}
	.st2{fill:#D9E7EC;}
	.st3{fill:#65DB55;}
	.st4{fill:#40C75B;}
	.st5{fill:#C95B2A;}
</style>
<g id="_x23_4d6a5f7e">
	<path class="st0" d="M165,138c2.5,0.2,7.5,0.7,10,1C172.5,138.8,167.5,138.3,165,138z"/>
</g>
<g id="_x23_f2f7fbff">
	<path class="st1" d="M213.8,155.8c2.9-3.4,3.2-9.6,8.3-10.8c3.5-0.9,4.6,3.3,6.9,5c17.3,33.5,35.1,66.7,52.1,100.3
		c5.6,9.2,9.8,19.1,15.1,28.4c-11.8,7.3-23.7,14.5-35.5,21.8c-1.9,1.3-4.9,2.2-7,0.7c-9.6-6.3-18.4-13.6-27.7-20.3
		c-1.5-1.2-3.8-1.5-5.3-0.3c-9.8,6.4-18.7,14.1-28.3,20.7c-5.1,2.1-9.2-2.3-13.3-4.5c-9.6-6.4-20-11.6-29.3-18.6
		C171.3,237.6,192.5,196.7,213.8,155.8z"/>
</g>
<g id="_x23_d9e7ecff">
	<path class="st2" d="M311.4,195.3c5.8-3.1,7.4,3.1,9.9,6.5c16.8,33,34.4,65.6,51.5,98.5c1.5,3.1,4.5,6,4.3,9.7
		c-9.1,6.1-18.4,11.9-28.1,17.1l-4.6-0.3c-11.3-6.9-22-14.9-33.4-21.8c-5.9-8.2-9.5-17.7-14.8-26.2c-5.3-9.3-9.5-19.2-15.1-28.4
		c5.4-10.1,11-20.1,16-30.4C302.5,212.2,304.6,202.2,311.4,195.3z"/>
</g>
<g id="_x23_65db55ff">
	<path class="st3" d="M149.3,278l0.5,0.4c9.3,6.9,19.7,12.1,29.3,18.6c4.1,2.1,8.2,6.6,13.3,4.5c9.6-6.7,18.5-14.4,28.3-20.7
		c1.6-1.2,3.8-0.8,5.3,0.3c9.3,6.7,18.1,14,27.7,20.3c2.1,1.5,5.1,0.6,7-0.7c11.8-7.3,23.6-14.5,35.5-21.8c5.3,8.5,9,18,14.8,26.2
		c3.1,9.5,9,17.9,13.2,26.9c28,53.9,56.4,107.7,84.3,161.7c3.1,5.6,6.5,11.2,8.7,17.3c-40.1,0.2-80.1,0-120.1,0.1
		c-0.2-8.3,0.3-16.6-0.1-24.9c-3.7,0-11.1,0-14.8,0c-0.2,8.3,0,16.6-0.1,24.9c-39.3,0-78.6,0-118,0c-0.2-8.3,0.3-16.6-0.1-24.9
		c-3.7,0-11.1,0-14.8,0c-0.2,8.3,0,16.6-0.1,24.9c-40,0-80.1,0-120.1,0c4.6-11,11.1-21.1,16.3-31.9c32-61.3,64-122.6,96-184
		C144.4,289.7,147.4,284,149.3,278 M154.3,378.2c-1.2,1.2-2.6,2.3-3.3,3.8c-7.6,18.5-16.6,36.5-24,55c-3.3,8.4,8.4,5.4,10,11
		c0.5,4-1.4,7.5-2.8,11.1c-2.5,6.5-5.3,12.8-7.8,19.2c-0.6,1.5-0.7,3.5,0.9,4.5c3.9,4.5,10.6,3,15.8,3.2c12.8-2.7,25.8,1.4,38.7-0.4
		c1.7-0.4,3.8-0.6,4.4-2.5c2.2-3.1-0.3-6.7-1.4-9.8c-2.7-7.2-6.1-14.2-8.3-21.6c-2.6-4.4,2.1-7.2,5.6-7.6c2.7,0,4.2-2.8,4.9-5
		c-2.6-8.6-7-16.4-10.3-24.7c-5.4-11.6-10.2-23.5-15.8-35.1C158.8,378,156.6,377.7,154.3,378.2 M287.3,378.3c-1.1,0.5-2.3,1-3,2
		c-7.9,19.2-17,37.9-25,57c-1.7,3.9,2.9,7.1,6.4,7.1c4.1,0.9,5.5,6.2,3,9.3c-3.2,8.1-6.6,16.1-9.6,24.3c-2.4,3.3,0.4,5.1,2.2,6.6
		c6.1,2.6,13,1.3,19.4,0.7c9.4-1.6,18.9,1.2,28.4,0.6c3.3-0.2,7.6-0.2,9.8-3.2c0.4-2.6,0.4-5.5-0.8-7.8c-2.8-6.6-5.3-13.4-8.1-20
		c-1.6-3.1-2.2-7.9,1.3-9.7c2.8-1.1,5.7-2,7.5-4.6c0.5-3.1-0.6-6-1.8-8.7c-7.1-15.6-13.9-31.4-21-47
		C294,381.9,292.9,375.4,287.3,378.3z"/>
</g>
<g id="_x23_40c75bff">
	<path class="st4" d="M311,305c11.4,6.8,22.1,14.8,33.4,21.8l4.6,0.3c9.7-5.2,19-11,28.1-17.1c2.6,1.1,2.9,5.1,4.7,7.3
		C414.7,379.4,447,441.9,480,504c1,2.6,3.2,5,3,8c-62,0.1-124,0.1-186.1,0l0-1c40,0,80.1,0.1,120.1-0.1c-2.3-6-5.6-11.7-8.7-17.3
		c-27.9-54-56.2-107.8-84.3-161.7C319.9,322.9,314,314.5,311,305z"/>
	<path class="st4" d="M154.3,378.2c2.4-0.5,4.5-0.1,6.5,1.1c5.6,11.5,10.5,23.4,15.8,35.1c3.4,8.3,7.8,16.1,10.3,24.7
		c-0.7,2.3-2.2,5-4.9,5c-3.4,0.4-8.1,3.3-5.6,7.6c2.2,7.4,5.6,14.4,8.3,21.6c1.1,3.1,3.6,6.6,1.4,9.8c-0.6,1.9-2.7,2.1-4.4,2.5
		c-12.9,1.8-25.8-2.3-38.7,0.4c-5.2-0.2-11.9,1.3-15.8-3.2c-1.5-1-1.5-3-0.9-4.5c2.5-6.4,5.3-12.7,7.8-19.2
		c1.4-3.5,3.3-7.1,2.8-11.1c-1.6-5.7-13.3-2.6-10-11c7.4-18.5,16.4-36.5,24-55C151.7,380.5,153.1,379.4,154.3,378.2z"/>
	<path class="st4" d="M287.3,378.3c5.6-2.9,6.7,3.6,8.7,6.7c7.1,15.6,13.9,31.4,21,47c1.3,2.7,2.4,5.6,1.8,8.7
		c-1.8,2.6-4.8,3.5-7.5,4.6c-3.6,1.8-2.9,6.7-1.3,9.7c2.8,6.6,5.3,13.3,8.1,20c1.2,2.4,1.2,5.2,0.8,7.8c-2.3,3-6.5,3-9.8,3.2
		c-9.5,0.6-18.9-2.2-28.4-0.6c-6.4,0.5-13.3,1.9-19.4-0.7c-1.9-1.5-4.6-3.3-2.2-6.6c3-8.2,6.4-16.2,9.6-24.3c2.4-3.2,1-8.4-3-9.3
		c-3.5,0-8.1-3.1-6.4-7.1c7.9-19.2,17-37.9,25-57C285,379.3,286.2,378.8,287.3,378.3z"/>
	<path class="st4" d="M28.9,511c40,0.1,80.1,0,120.1,0l0,1c-40,0.1-80,0.1-120,0L28.9,511z"/>
	<path class="st4" d="M164,511c39.3,0,78.7,0,118,0l0,1c-39.3,0.1-78.7,0.1-118,0L164,511z"/>
</g>
<g id="_x23_c95b2aff">
	<path class="st5" d="M149.1,486c3.7,0,11.1,0,14.8,0c0.4,8.3,0,16.6,0.1,24.9l0,1c-5,0.1-10,0.2-15,0l0-1
		C149,502.7,148.9,494.4,149.1,486z"/>
	<path class="st5" d="M282.1,486c3.7,0,11.1,0,14.8,0c0.4,8.3,0,16.6,0.1,24.9l0,1c-5,0.1-10,0.2-15,0l0-1
		C282,502.7,281.9,494.4,282.1,486z"/>
</g>
</svg>
