<svg id="Icon_Set" enable-background="new 0 0 64 64" height="512" viewBox="0 0 64 64" width="512" xmlns="http://www.w3.org/2000/svg"><path d="m4 50v-40h53v40c0 1.105-.895 2-2 2h-49c-1.105 0-2-.895-2-2z" fill="#005b8a"/><path d="m55 52.5h-49c-1.378 0-2.5-1.122-2.5-2.5v-40c0-.276.224-.5.5-.5h53c.276 0 .5.224.5.5v40c0 1.378-1.121 2.5-2.5 2.5zm-50.5-42v39.5c0 .827.673 1.5 1.5 1.5h49c.827 0 1.5-.673 1.5-1.5v-39.5z" fill="#212a41"/><path d="m7 50v-40h53v40c0 1.105-.895 2-2 2h-49c-1.105 0-2-.895-2-2z" fill="#0079a8"/><path d="m58 52.5h-49c-1.378 0-2.5-1.122-2.5-2.5v-40c0-.276.224-.5.5-.5h53c.276 0 .5.224.5.5v40c0 1.378-1.121 2.5-2.5 2.5zm-50.5-42v39.5c0 .827.673 1.5 1.5 1.5h49c.827 0 1.5-.673 1.5-1.5v-39.5z" fill="#212a41"/><path d="m55 4h-49c-1.105 0-2 .895-2 2v4h53v-4c0-1.105-.895-2-2-2z" fill="#c2c2c2"/><path d="m57 10.5h-53c-.276 0-.5-.224-.5-.5v-4c0-1.378 1.122-2.5 2.5-2.5h49c1.379 0 2.5 1.122 2.5 2.5v4c0 .276-.224.5-.5.5zm-52.5-1h52v-3.5c0-.827-.673-1.5-1.5-1.5h-49c-.827 0-1.5.673-1.5 1.5z" fill="#212a41"/><path d="m58 50.5c-.276 0-.5-.224-.5-.5v-38c0-.276.224-.5.5-.5s.5.224.5.5v38c0 .276-.224.5-.5.5z" fill="#005b8a"/><path d="m9 50.5c-.276 0-.5-.224-.5-.5v-38c0-.276.224-.5.5-.5s.5.224.5.5v38c0 .276-.224.5-.5.5z" fill="#1e97c6"/><path d="m58 4h-49c-1.105 0-2 .895-2 2v4h53v-4c0-1.105-.895-2-2-2z" fill="#e0e0e0"/><path d="m60 10.5h-53c-.276 0-.5-.224-.5-.5v-4c0-1.378 1.122-2.5 2.5-2.5h49c1.379 0 2.5 1.122 2.5 2.5v4c0 .276-.224.5-.5.5zm-52.5-1h52v-3.5c0-.827-.673-1.5-1.5-1.5h-49c-.827 0-1.5.673-1.5 1.5z" fill="#212a41"/><path d="m52 7.5h-2c-.276 0-.5-.224-.5-.5s.224-.5.5-.5h2c.276 0 .5.224.5.5s-.224.5-.5.5z" fill="#212a41"/><path d="m57 8.5c-.128 0-.256-.049-.354-.146l-2-2c-.195-.195-.195-.512 0-.707s.512-.195.707 0l2 2c.195.195.195.512 0 .707-.097.097-.225.146-.353.146z" fill="#212a41"/><path d="m55 8.5c-.128 0-.256-.049-.354-.146-.195-.195-.195-.512 0-.707l2-2c.195-.195.512-.195.707 0s.195.512 0 .707l-2 2c-.097.097-.225.146-.353.146z" fill="#212a41"/><g fill="#e0e0e0"><path d="m18.083 31.5h-5c-.276 0-.5-.224-.5-.5s.224-.5.5-.5h5c.276 0 .5.224.5.5s-.224.5-.5.5z"/><path d="m29.083 35.5h-12c-.276 0-.5-.224-.5-.5s.224-.5.5-.5h12c.276 0 .5.224.5.5s-.224.5-.5.5z"/><path d="m36.083 35.5h-4c-.276 0-.5-.224-.5-.5s.224-.5.5-.5h4c.276 0 .5.224.5.5s-.224.5-.5.5z"/><path d="m25.083 43.5h-8c-.276 0-.5-.224-.5-.5s.224-.5.5-.5h8c.276 0 .5.224.5.5s-.224.5-.5.5z"/><path d="m34.083 31.5h-12c-.276 0-.5-.224-.5-.5s.224-.5.5-.5h12c.276 0 .5.224.5.5s-.224.5-.5.5z"/><path d="m18.083 39.5h-5c-.276 0-.5-.224-.5-.5s.224-.5.5-.5h5c.276 0 .5.224.5.5s-.224.5-.5.5z"/><path d="m30.083 39.5h-8c-.276 0-.5-.224-.5-.5s.224-.5.5-.5h8c.276 0 .5.224.5.5s-.224.5-.5.5z"/><path d="m17 24.5c-.128 0-.256-.049-.354-.146l-4-4c-.195-.195-.195-.512 0-.707l4-4c.195-.195.512-.195.707 0s.195.512 0 .707l-3.646 3.646 3.646 3.646c.195.195.195.512 0 .707-.097.098-.225.147-.353.147z"/><path d="m25 24.5c-.128 0-.256-.049-.354-.146-.195-.195-.195-.512 0-.707l3.647-3.647-3.646-3.646c-.195-.195-.195-.512 0-.707s.512-.195.707 0l4 4c.195.195.195.512 0 .707l-4 4c-.098.097-.226.146-.354.146z"/><path d="m20 24.5c-.04 0-.081-.005-.122-.015-.268-.067-.431-.338-.364-.606l2-8c.067-.269.337-.435.606-.364.268.067.431.338.364.606l-2 8c-.056.228-.259.379-.484.379z"/></g><path d="m56.5 48c0-.746-.088-1.47-.243-2.169l1.269-.733c.478-.276.642-.888.366-1.366l-2-3.464c-.276-.478-.888-.642-1.366-.366l-1.275.736c-1.066-.978-2.337-1.735-3.751-2.179v-1.459c0-.552-.448-1-1-1h-4c-.552 0-1 .448-1 1v1.459c-1.414.444-2.685 1.201-3.751 2.179 0 0-.681-.393-1.275-.736-.478-.276-1.09-.112-1.366.366l-2 3.464c-.276.478-.112 1.09.366 1.366l1.269.733c-.155.699-.243 1.423-.243 2.169s.088 1.47.243 2.169l-1.269.733c-.478.276-.642.888-.366 1.366l2 3.464c.276.478.888.642 1.366.366l1.275-.736c1.066.978 2.337 1.735 3.751 2.179v1.459c0 .552.448 1 1 1h4c.552 0 1-.448 1-1v-1.459c1.414-.444 2.685-1.201 3.751-2.179 0 0 .681.393 1.275.736.478.276 1.09.112 1.366-.366l2-3.464c.276-.478.112-1.09-.366-1.366l-1.269-.733c.155-.699.243-1.423.243-2.169zm-9.05 5.927c-4.055.622-7.499-2.821-6.877-6.877.387-2.526 2.451-4.59 4.977-4.977 4.056-.622 7.499 2.821 6.877 6.877-.387 2.526-2.451 4.59-4.977 4.977z" fill="#b7c0d7"/><path d="m48.5 60.5h-4c-.827 0-1.5-.673-1.5-1.5v-1.099c-1.209-.427-2.32-1.073-3.313-1.926l-.963.556c-.717.413-1.636.166-2.049-.549l-2-3.464c-.413-.717-.167-1.636.549-2.049l.957-.552c-.12-.643-.181-1.286-.181-1.917s.061-1.274.181-1.917l-.957-.552c-.716-.413-.962-1.332-.55-2.049l2.001-3.464c.413-.716 1.332-.963 2.049-.549l.963.556c.993-.853 2.104-1.499 3.313-1.926v-1.099c0-.827.673-1.5 1.5-1.5h4c.827 0 1.5.673 1.5 1.5v1.099c1.209.427 2.32 1.073 3.313 1.926l.963-.556c.718-.414 1.636-.166 2.049.549l2 3.464c.413.717.167 1.636-.549 2.049l-.957.552c.12.643.181 1.286.181 1.917s-.061 1.274-.181 1.917l.957.552c.716.413.962 1.332.55 2.049l-2.001 3.464c-.413.716-1.331.962-2.049.549l-.963-.556c-.993.853-2.104 1.499-3.313 1.926v1.099c0 .827-.673 1.5-1.5 1.5zm-8.751-5.638c.122 0 .243.045.338.132 1.046.959 2.244 1.656 3.562 2.07.209.065.351.258.351.477v1.459c0 .276.225.5.5.5h4c.275 0 .5-.224.5-.5v-1.459c0-.218.142-.412.351-.477 1.318-.414 2.517-1.11 3.562-2.07.161-.148.398-.174.588-.065l1.275.736c.117.067.251.084.38.05.129-.035.236-.118.304-.233l2-3.464c.137-.239.055-.545-.184-.683l-1.27-.732c-.189-.109-.285-.328-.238-.542.154-.691.232-1.384.232-2.061s-.078-1.37-.231-2.061c-.047-.213.049-.433.238-.542l1.27-.732c.238-.138.32-.444.183-.684l-1.999-3.463c-.139-.239-.447-.321-.684-.183l-1.275.736c-.189.108-.427.083-.588-.065-1.046-.959-2.244-1.656-3.562-2.07-.21-.065-.352-.258-.352-.477v-1.459c0-.276-.225-.5-.5-.5h-4c-.275 0-.5.224-.5.5v1.459c0 .218-.142.412-.351.477-1.318.414-2.517 1.11-3.562 2.07-.161.148-.398.173-.588.065l-1.275-.736c-.116-.066-.25-.083-.38-.05-.129.035-.236.118-.304.233l-2 3.464c-.137.239-.055.545.184.683l1.27.732c.189.109.285.328.238.542-.154.691-.232 1.384-.232 2.061s.078 1.37.231 2.061c.047.213-.049.433-.238.542l-1.27.732c-.238.138-.32.444-.183.684l1.999 3.463c.138.239.445.32.684.183l1.275-.736c.079-.045.165-.067.251-.067zm6.747-.362c-1.724 0-3.356-.668-4.593-1.905-1.48-1.48-2.146-3.529-1.824-5.621.422-2.754 2.64-4.973 5.395-5.396 2.091-.324 4.142.343 5.622 1.824s2.146 3.53 1.825 5.622c-.422 2.754-2.64 4.973-5.395 5.396-.345.055-.689.08-1.03.08zm.954-.573h.01zm-.949-11.427c-.289 0-.582.022-.875.067-2.328.357-4.202 2.231-4.559 4.559-.272 1.774.291 3.51 1.543 4.763 1.254 1.253 2.989 1.816 4.764 1.544 2.328-.357 4.202-2.232 4.559-4.559.272-1.774-.291-3.51-1.544-4.764-1.046-1.045-2.428-1.61-3.888-1.61z" fill="#212a41"/><path d="m38.473 39.902c.594.343 1.275.736 1.275.736 1.066-.978 2.337-1.735 3.751-2.179v-1.459c0-.552.448-1 1-1h-3c-.552 0-1 .448-1 1v1.459c-.97.305-1.867.766-2.682 1.335.219-.034.449-.012.656.108z" fill="#99a2b9"/><path d="m39.749 41.138c-.086 0-.172-.022-.25-.067l-1.275-.736c-.089-.051-.196-.066-.327-.046-.228.038-.454-.089-.543-.306-.087-.216-.014-.464.178-.597.785-.549 1.614-.98 2.469-1.286v-1.1c0-.827.673-1.5 1.5-1.5h3c.276 0 .5.224.5.5s-.224.5-.5.5c-.275 0-.5.224-.5.5v1.459c0 .218-.142.412-.351.477-1.318.414-2.517 1.11-3.562 2.07-.096.087-.217.132-.339.132zm-.733-1.501.671.388c.993-.853 2.104-1.499 3.313-1.926v-1.099c0-.175.03-.344.086-.5h-1.586c-.275 0-.5.224-.5.5v1.459c0 .218-.142.412-.351.477-.555.175-1.102.41-1.633.701z" fill="#212a41"/><path d="m45.55 42.073c-.184.028-.36.084-.539.129 2.868.746 4.906 3.552 4.416 6.748-.359 2.342-2.165 4.268-4.438 4.848.772.201 1.601.261 2.461.129 2.526-.387 4.59-2.451 4.977-4.977.622-4.056-2.821-7.499-6.877-6.877z" fill="#99a2b9"/><path d="m46.532 54.497c-.559 0-1.117-.072-1.67-.215-.221-.057-.375-.257-.374-.485s.155-.427.376-.483c2.109-.538 3.744-2.322 4.068-4.439.432-2.815-1.308-5.476-4.047-6.188-.221-.058-.375-.257-.374-.485s.155-.427.377-.483l.137-.037c.147-.04.296-.079.449-.102 2.093-.324 4.141.343 5.621 1.824s2.146 3.53 1.825 5.622c-.422 2.754-2.64 4.973-5.395 5.396-.33.05-.662.075-.993.075zm.457-11.976c2.129 1.352 3.336 3.871 2.932 6.504-.281 1.84-1.396 3.467-2.955 4.455.137-.011.272-.026.408-.047 2.328-.357 4.202-2.231 4.559-4.559.272-1.774-.291-3.51-1.544-4.764-.929-.928-2.122-1.477-3.4-1.589z" fill="#212a41"/><path d="m35.108 52.268c-.276-.478-.112-1.09.366-1.366l1.269-.733c-.155-.699-.243-1.423-.243-2.169s.088-1.47.243-2.169l-1.269-.733c-.478-.276-.642-.888-.366-1.366l1.918-3.323c-.091.078-.189.148-.277.229 0 0-.681-.393-1.275-.736-.478-.276-1.09-.112-1.366.366l-2 3.464c-.276.478-.112 1.09.366 1.366l1.269.733c-.155.699-.243 1.423-.243 2.169s.088 1.47.243 2.169l-1.269.733c-.478.276-.642.888-.366 1.366l2 3.464c.276.478.888.642 1.366.366l1.275-.736c.088.081.186.151.277.229z" fill="#99a2b9"/><path d="m34.977 56.731c-.52 0-1.024-.269-1.302-.75l-2-3.464c-.414-.716-.167-1.635.548-2.049l.958-.553c-.12-.641-.181-1.284-.181-1.915s.061-1.274.181-1.917l-.957-.552c-.716-.414-.962-1.333-.549-2.049l2-3.464c.413-.716 1.332-.963 2.049-.549l.975.563.005-.004c.187-.157.457-.158.644-.002s.234.423.112.634l-1.919 3.322c-.137.239-.055.545.184.683l1.27.732c.189.109.285.328.238.542-.155.691-.233 1.384-.233 2.061s.078 1.37.231 2.061c.047.213-.049.432-.238.542l-1.27.733c-.238.138-.32.444-.184.683l1.919 3.322c.122.21.074.478-.112.634-.187.156-.457.155-.644-.002l-.005-.004-.975.563c-.234.135-.492.199-.745.199zm-.002-16.463c-.044 0-.087.006-.131.017-.129.035-.236.118-.304.233l-1.999 3.464c-.138.239-.056.545.183.683l1.269.732c.189.109.285.328.238.542-.153.691-.231 1.384-.231 2.061s.078 1.37.231 2.061c.047.213-.049.432-.238.542l-1.27.733c-.238.138-.321.444-.183.683l1.999 3.464c.138.239.446.32.684.183l.951-.549-1.5-2.598h-.001c-.412-.717-.166-1.636.55-2.049l.957-.553c-.119-.643-.18-1.286-.18-1.917s.061-1.274.181-1.917l-.957-.552c-.716-.413-.962-1.332-.55-2.049l1.501-2.598-.951-.549c-.078-.044-.163-.067-.249-.067z" fill="#212a41"/><path d="m43.5 59v-1.459c-1.414-.444-2.685-1.201-3.751-2.179l-1.275.736c-.207.12-.437.142-.657.107.816.57 1.712 1.031 2.683 1.336v1.459c0 .552.448 1 1 1h3c-.552 0-1-.448-1-1z" fill="#99a2b9"/><path d="m44.5 60.5h-3c-.827 0-1.5-.673-1.5-1.5v-1.1c-.854-.305-1.684-.736-2.469-1.286-.191-.133-.265-.381-.178-.597.089-.216.315-.345.543-.306.132.022.238.005.327-.046l1.275-.736c.189-.109.427-.083.588.065 1.046.959 2.244 1.656 3.562 2.07.21.065.352.258.352.477v1.459c0 .276.225.5.5.5.276 0 .5.224.5.5s-.224.5-.5.5zm-5.484-4.137c.531.292 1.078.526 1.634.701.208.065.35.258.35.477v1.459c0 .276.225.5.5.5h1.586c-.056-.156-.086-.325-.086-.5v-1.099c-1.209-.427-2.32-1.073-3.313-1.926z" fill="#212a41"/></svg>